<svg width="40" height="40" viewBox="0 0 40 40" fill="none" xmlns="http://www.w3.org/2000/svg">
<path d="M6.667 0C15.5562 0 24.4451 0 33.3343 0C33.6686 0.0492622 34.0065 0.079709 34.3365 0.150181C37.6623 0.861746 39.994 3.79421 39.9966 7.29286C40.0026 15.7642 39.999 24.236 39.998 32.7074C39.998 33.722 39.8305 34.709 39.4061 35.6268C38.0964 38.4604 35.8972 39.9694 32.8422 39.9814C24.2816 40.0149 15.7207 39.9927 7.15975 39.9937C6.0835 39.9937 5.04729 39.7905 4.08013 39.3044C1.93698 38.2271 0.61252 36.4862 0.131779 34.0829C0.0710604 33.7785 0.0430366 33.4672 0 33.1589C0 24.3735 0 15.5881 0 6.80263C0.0100085 6.765 0.0263557 6.72805 0.0290247 6.69008C0.130111 5.34084 0.562811 4.11339 1.3398 3.0221C2.44875 1.46487 3.93034 0.496727 5.78024 0.132734C6.07316 0.0752617 6.37108 0.0437886 6.667 0Z" fill="black"/>
<path fill-rule="evenodd" clip-rule="evenodd" d="M28.4402 9.03675C27.4618 9.28419 26.8231 10.1291 26.851 11.0992L26.8515 11.0982C26.8252 12.2168 27.5412 13.1751 28.7454 13.2947C29.7527 13.3952 30.663 12.9545 31.0347 11.8941C31.2492 11.2817 31.21 10.6662 30.9311 10.0755C30.661 9.50327 30.2012 9.16047 29.5908 9.02129C29.2083 8.93417 28.8212 8.94035 28.4402 9.03675ZM16.4036 10.2753H18.4965C18.7547 10.2753 18.7712 10.2835 18.8506 10.5242C18.9489 10.8225 19.0542 11.1184 19.1595 11.4143L19.1595 11.4144C19.2271 11.6043 19.2947 11.7942 19.3604 11.9846C19.4707 12.3048 19.5867 12.6249 19.7058 12.9429C19.833 13.282 19.9531 13.6238 20.0733 13.9655C20.1198 14.0976 20.1662 14.2297 20.213 14.3616C20.2544 14.4779 20.2962 14.5941 20.3381 14.7103L20.3381 14.7104C20.4444 15.0056 20.5508 15.301 20.6492 15.5988C20.8043 16.0684 20.9708 16.5349 21.1384 16.9999C21.2457 17.2976 21.3522 17.5958 21.4587 17.894C21.5477 18.143 21.6366 18.392 21.726 18.6407C21.8116 18.8787 21.8941 19.1179 21.9767 19.357L21.9767 19.3572C22.0642 19.6106 22.1516 19.8638 22.2425 20.1155C22.3579 20.4344 22.4719 20.7536 22.586 21.0728L22.5862 21.0735C22.6653 21.2949 22.7445 21.5164 22.824 21.7377C22.9087 21.9727 22.99 22.209 23.0713 22.4452L23.0713 22.4452L23.0714 22.4453C23.1618 22.7081 23.2522 22.9708 23.3472 23.2316C23.4692 23.5664 23.5888 23.902 23.7085 24.2376L23.7088 24.2386C23.7864 24.4561 23.8639 24.6736 23.9421 24.891C24.0456 25.1782 24.1458 25.4671 24.246 25.7558L24.2461 25.756L24.2461 25.756C24.3145 25.9533 24.383 26.1506 24.4525 26.3473C24.4854 26.4406 24.5176 26.5343 24.5497 26.6281L24.5498 26.6282C24.6316 26.867 24.7136 27.1061 24.8102 27.3396C24.887 27.5244 24.9511 27.7144 25.0153 27.9044L25.0153 27.9045C25.039 27.9747 25.0627 28.0449 25.087 28.1149L25.091 28.1261L25.091 28.1261C25.1114 28.1844 25.1323 28.244 25.1396 28.3041C25.1515 28.4062 25.1015 28.4644 24.9968 28.4773C24.952 28.4828 24.9063 28.4823 24.8606 28.4817C24.8469 28.4816 24.8332 28.4814 24.8195 28.4814L23.9699 28.4812C23.1211 28.4809 22.2723 28.4806 21.4234 28.483C21.1703 28.4835 21.1198 28.4732 21.009 28.1866C20.9591 28.0576 20.9183 27.9252 20.8776 27.7927C20.8375 27.6624 20.7975 27.5321 20.7486 27.4051C20.6304 27.0973 20.526 26.7849 20.4217 26.4726C20.3441 26.2403 20.2665 26.008 20.1831 25.7777C20.0151 25.3122 19.8553 24.8426 19.6991 24.3724L19.6989 24.3719C19.6357 24.1812 19.6355 24.1807 19.4465 24.1807H13.4044C13.3778 24.1807 13.3548 24.1796 13.3347 24.1788H13.3347C13.2216 24.1737 13.201 24.1728 13.1379 24.3812L13.1295 24.4089C13.0375 24.7136 12.9455 25.0182 12.8389 25.3178C12.7307 25.6235 12.6291 25.9323 12.5338 26.2406C12.4971 26.3592 12.4576 26.4771 12.4181 26.5949C12.3485 26.8023 12.2789 27.0098 12.225 27.2221C12.207 27.2935 12.1787 27.362 12.1503 27.4307C12.1291 27.482 12.1079 27.5333 12.091 27.586C12.059 27.6853 12.0313 27.786 12.0036 27.8867L12.0035 27.8867C11.9884 27.9417 11.9733 27.9967 11.9574 28.0515C11.943 28.102 11.9275 28.1525 11.9105 28.202C11.8337 28.4299 11.7641 28.4809 11.5218 28.4814H8.59952C8.57151 28.4814 8.54347 28.4817 8.5154 28.482H8.51535H8.51526C8.43801 28.4828 8.36063 28.4836 8.28353 28.4783C8.15362 28.4696 8.11032 28.4175 8.1129 28.2881C8.11496 28.1752 8.14641 28.0659 8.1861 27.9639C8.29307 27.6897 8.38428 27.411 8.47572 27.1316L8.49488 27.0731C8.5332 26.9567 8.57696 26.8418 8.62076 26.7268L8.62077 26.7268C8.6724 26.5912 8.72411 26.4555 8.76706 26.3169C8.85281 26.0388 8.9506 25.7645 9.04828 25.4905L9.04829 25.4905C9.08625 25.384 9.12419 25.2775 9.16141 25.1709C9.21905 25.0061 9.27626 24.841 9.33347 24.676C9.46251 24.3037 9.59159 23.9312 9.72588 23.5605C9.81134 23.3248 9.89052 23.0869 9.96972 22.8488C10.0267 22.6777 10.0836 22.5066 10.1429 22.3362C10.208 22.1491 10.2754 21.9628 10.3429 21.7764C10.4555 21.4652 10.5682 21.1539 10.6697 20.8392C10.7693 20.5312 10.877 20.2257 10.9846 19.9206L10.9847 19.9204C11.0247 19.8068 11.0647 19.6934 11.1043 19.5799L11.2171 19.2566L11.2173 19.2562C11.3626 18.8397 11.5081 18.423 11.6538 18.0066C11.6941 17.8912 11.735 17.776 11.7758 17.6608L11.7759 17.6607L11.7759 17.6607C11.8809 17.3646 11.9859 17.0682 12.0817 16.7684C12.1799 16.4616 12.2898 16.1587 12.3998 15.8558L12.3998 15.8558L12.3998 15.8557C12.4838 15.6243 12.5679 15.3928 12.6467 15.1596C12.7864 14.7451 12.9266 14.3301 13.073 13.9182C13.1363 13.74 13.1979 13.5613 13.2595 13.3826C13.3575 13.0985 13.4554 12.8145 13.5601 12.5326C13.806 11.8733 13.988 11.1985 13.971 10.484C13.9668 10.3201 14.0251 10.2758 14.2096 10.2753C14.7313 10.2742 15.253 10.2744 15.7749 10.2746L16.4015 10.2748L16.4036 10.2753ZM14.2416 20.6562C14.6251 20.699 18.4444 20.681 18.5846 20.6361C18.5243 20.3284 18.4145 20.033 18.3042 19.7433C18.1808 19.4187 18.0806 19.087 17.9807 18.7564C17.955 18.6711 17.9292 18.5859 17.9031 18.501C17.8501 18.3288 17.7962 18.1569 17.7423 17.9851C17.6416 17.6638 17.5409 17.3425 17.4459 17.0194C17.3688 16.7572 17.2854 16.4969 17.202 16.2367C17.1258 15.9991 17.0497 15.7615 16.9783 15.5225C16.8701 15.1597 16.7668 14.7956 16.6636 14.4314L16.6635 14.4312L16.6634 14.4309C16.5965 14.1949 16.5296 13.959 16.4613 13.7234C16.4569 13.7086 16.4538 13.6928 16.4507 13.6768L16.4507 13.6768C16.4392 13.6188 16.4272 13.558 16.3541 13.5285C16.3502 13.5412 16.3463 13.5532 16.3425 13.5647L16.3425 13.5647C16.3351 13.5871 16.3283 13.6077 16.3242 13.6285C16.1509 14.4841 15.8908 15.3157 15.6308 16.1471L15.6307 16.1471L15.5545 16.3911C15.4915 16.5938 15.4269 16.7962 15.3623 16.9987L15.3623 16.9988C15.2834 17.2462 15.2045 17.4936 15.1282 17.7417C15.0428 18.0205 14.9604 18.3003 14.8781 18.5801L14.8781 18.5801C14.7181 19.1238 14.5582 19.6675 14.3751 20.2042C14.3606 20.2467 14.3418 20.2881 14.323 20.3298C14.2775 20.4302 14.2312 20.5324 14.2411 20.6562H14.2416ZM27.043 21.6474V15.1368C27.043 14.7708 27.0672 14.7471 27.4347 14.7471H30.5143H30.5736C30.8674 14.7486 30.9159 14.796 30.9159 15.0925V26.4369V26.4434C30.9159 27.033 30.9159 27.6226 30.9153 28.2128C30.9153 28.2782 30.9138 28.3447 30.9009 28.4086C30.8824 28.5019 30.8231 28.5592 30.7236 28.5648C30.671 28.5679 30.6184 28.5695 30.5658 28.5695H27.4275H27.3878C27.1023 28.5659 27.0435 28.5086 27.0435 28.2179C27.0431 26.764 27.0433 25.3099 27.0434 23.8558V23.8378L27.0435 21.648L27.043 21.6474Z" fill="white"/>
</svg>
