<svg width="40" height="40" viewBox="0 0 40 40" fill="none" xmlns="http://www.w3.org/2000/svg">
<path d="M6.667 0C15.5562 0 24.4451 0 33.3343 0C33.6686 0.0492622 34.0065 0.079709 34.3365 0.150181C37.6623 0.861746 39.994 3.79421 39.9966 7.29286C40.0026 15.7642 39.999 24.236 39.998 32.7074C39.998 33.722 39.8305 34.709 39.4061 35.6268C38.0964 38.4604 35.8972 39.9694 32.8422 39.9814C24.2816 40.0149 15.7207 39.9927 7.15975 39.9937C6.0835 39.9937 5.04729 39.7905 4.08013 39.3044C1.93698 38.2271 0.61252 36.4862 0.131779 34.0829C0.0710604 33.7785 0.0430366 33.4672 0 33.1589C0 24.3735 0 15.5881 0 6.80263C0.0100085 6.765 0.0263557 6.72805 0.0290247 6.69008C0.130111 5.34084 0.562811 4.11339 1.3398 3.0221C2.44875 1.46487 3.93034 0.496727 5.78024 0.132734C6.07316 0.0752617 6.37108 0.0437886 6.667 0Z" fill="black"/>
<path fill-rule="evenodd" clip-rule="evenodd" d="M30.5963 14.2969V14.532H30.5952C30.5658 14.532 30.5385 14.5326 30.5128 14.5332C30.4623 14.5344 30.4175 14.5354 30.3733 14.5313C29.5946 14.4593 28.8196 14.4943 28.0465 14.604C26.5022 14.8235 25.1185 15.4035 23.9582 16.461C22.7083 17.5998 21.9496 19.0087 21.6982 20.6856C21.5933 21.3854 21.6082 22.0873 21.6671 22.7891C21.7439 23.7043 21.95 24.5869 22.3779 25.4044C23.2799 27.128 24.7349 28.1301 26.5894 28.6058C27.7605 28.9064 28.9453 28.9275 30.1413 28.8229C31.5616 28.699 32.938 28.397 34.2593 27.8555C34.5134 27.7513 34.5408 27.7132 34.5311 27.4445C34.5208 27.1589 34.508 26.8733 34.4952 26.5877C34.4678 25.9751 34.4405 25.3625 34.4369 24.7499C34.4273 23.0699 34.4291 21.3896 34.4309 19.7094C34.4317 19.0372 34.4324 18.3651 34.4324 17.693V9.14845C34.4324 8.90296 34.4189 8.8898 34.1821 8.8898C33.8149 8.8898 33.4478 8.88976 33.0807 8.88973C32.3465 8.88965 31.6125 8.88957 30.8785 8.8898C30.6094 8.8898 30.5963 8.90365 30.5963 9.17719V14.2969ZM30.5961 20.7908C30.5962 21.0715 30.5963 21.3522 30.5963 21.633C30.5963 21.9518 30.5962 22.2705 30.596 22.5893C30.5957 23.4814 30.5954 24.3734 30.5977 25.2655C30.5977 25.3836 30.5817 25.4636 30.4432 25.4809C29.3671 25.617 28.3023 25.6339 27.302 25.1249C26.559 24.7468 26.095 24.1229 25.8214 23.3514C25.4831 22.3968 25.4496 21.4183 25.6802 20.4401C25.9374 19.3498 26.6524 18.6164 27.6285 18.1254C28.5142 17.6801 29.4526 17.5957 30.4225 17.7709C30.5582 17.7954 30.5997 17.8463 30.599 17.9828C30.5953 18.9188 30.5957 19.8548 30.5961 20.7908ZM13.3354 17.1719C13.3256 17.1861 13.3146 17.2021 13.3021 17.2209V17.2212C13.2891 17.1972 13.2768 17.1749 13.2653 17.1538C13.237 17.1021 13.2125 17.0574 13.1882 17.0124C13.05 16.7568 12.9128 16.5007 12.7755 16.2446C12.4667 15.6683 12.1578 15.0921 11.8385 14.5218C11.7587 14.3792 11.6786 14.2367 11.5986 14.0942C10.979 12.9913 10.3596 11.8888 9.84688 10.7303C9.73781 10.4835 9.57542 10.3837 9.31434 10.3848C8.70942 10.3868 8.10442 10.3869 7.49942 10.3871C6.84181 10.3873 6.18419 10.3874 5.52667 10.39C5.46972 10.3902 5.41277 10.4132 5.35593 10.4361C5.32948 10.4468 5.30306 10.4574 5.27668 10.4658C5.28418 10.4893 5.29035 10.5136 5.29651 10.5378C5.30969 10.5897 5.32286 10.6416 5.34904 10.6857C7.04915 13.5686 8.75133 16.4504 10.4566 19.3302C10.5266 19.4483 10.5342 19.5335 10.4587 19.6557C10.0326 20.3439 9.61177 21.0351 9.19095 21.7262C9.07249 21.9207 8.95404 22.1153 8.83547 22.3097C8.68238 22.5609 8.52928 22.812 8.37619 23.0631C7.32671 24.7846 6.27726 26.5059 5.22993 28.2286C5.19452 28.2868 5.17118 28.3523 5.14663 28.4212C5.13468 28.4546 5.12245 28.4889 5.1084 28.5236C5.13239 28.5292 5.1504 28.5339 5.16472 28.5377C5.18802 28.5439 5.20153 28.5475 5.21504 28.5475C5.77805 28.5471 6.34106 28.5464 6.90407 28.5458C7.65544 28.5449 8.40681 28.5441 9.15818 28.5437C9.30326 28.5437 9.38879 28.4703 9.45457 28.3467C10.474 26.4323 11.4952 24.519 12.5162 22.6058C12.642 22.3701 12.7678 22.1344 12.8936 21.8987C12.9124 21.8633 12.9322 21.8285 12.9563 21.7862C12.9684 21.7648 12.9816 21.7415 12.9964 21.7152C13.0127 21.7417 13.0273 21.7647 13.0405 21.7854C13.0645 21.8233 13.084 21.8538 13.101 21.8856C13.3224 22.2984 13.5439 22.7112 13.7654 23.124C14.6657 24.8017 15.5661 26.4797 16.4589 28.1614C16.5864 28.401 16.7439 28.5125 17.0123 28.5118C17.9452 28.509 18.8783 28.5101 19.8114 28.5111C20.2389 28.5116 20.6664 28.5121 21.0939 28.5122C21.1305 28.5122 21.1672 28.5095 21.2168 28.506C21.2431 28.5041 21.2731 28.5019 21.3086 28.4997C21.2905 28.4574 21.2749 28.4172 21.2601 28.379C21.2304 28.3025 21.2039 28.234 21.1663 28.1722C19.3786 25.2339 17.5888 22.2969 15.7966 19.3617C15.7297 19.2527 15.7135 19.1741 15.7865 19.0539C17.4835 16.2628 19.1756 13.4689 20.8661 10.6739C20.9003 10.6168 20.935 10.5177 20.909 10.4769C20.8806 10.4319 20.7819 10.4142 20.7137 10.4142C20.3554 10.4131 19.9971 10.4144 19.6387 10.4157C18.89 10.4184 18.1413 10.4212 17.3931 10.4017C17.0199 10.392 16.8332 10.4987 16.6587 10.8387C15.8419 12.4303 15.0079 14.0127 14.1739 15.5951C13.9098 16.0962 13.6457 16.5973 13.3821 17.0986C13.3701 17.1216 13.3552 17.1431 13.3354 17.1719Z" fill="white"/>
</svg>
