<svg width="40" height="40" viewBox="0 0 40 40" fill="none" xmlns="http://www.w3.org/2000/svg">
<path d="M6.667 0C15.5562 0 24.4451 0 33.3343 0C33.6686 0.0492622 34.0065 0.079709 34.3365 0.150181C37.6623 0.861746 39.994 3.79421 39.9966 7.29286C40.0026 15.7642 39.999 24.236 39.998 32.7074C39.998 33.722 39.8305 34.709 39.4061 35.6268C38.0964 38.4604 35.8972 39.9694 32.8422 39.9814C24.2816 40.0149 15.7207 39.9927 7.15975 39.9937C6.0835 39.9937 5.04729 39.7905 4.08013 39.3044C1.93698 38.2271 0.61252 36.4862 0.131779 34.0829C0.0710604 33.7785 0.0430366 33.4672 0 33.1589C0 24.3735 0 15.5881 0 6.80263C0.0100085 6.765 0.0263557 6.72805 0.0290247 6.69008C0.130111 5.34084 0.562811 4.11339 1.3398 3.0221C2.44875 1.46487 3.93034 0.496727 5.78024 0.132734C6.07316 0.0752617 6.37108 0.0437886 6.667 0Z" fill="black"/>
<path d="M33.896 16.7477V16.873C33.7478 17.0109 33.5846 17.1362 33.4551 17.2891C29.8645 21.5041 26.2788 25.7216 22.6907 29.9391C21.7666 31.0257 20.8375 32.1074 19.8922 33.2116C19.7316 33.0361 19.6157 32.9183 19.5086 32.7917C15.9467 28.6068 12.3897 24.4194 8.82274 20.2395C7.85503 19.1052 6.85743 17.9947 5.87354 16.8742C5.87354 16.8329 5.87354 16.7903 5.87354 16.7489C7.78031 14.0768 9.6796 11.3997 11.61 8.74507C11.7894 8.49816 12.1468 8.29011 12.4507 8.23997C14.1034 7.96424 15.7611 7.71858 17.4238 7.51429C18.4849 7.38394 19.5721 7.19218 20.6221 7.2937C22.8439 7.50928 25.0459 7.9116 27.2603 8.20864C27.6874 8.2663 27.9652 8.42422 28.2168 8.78142C30.0974 11.446 31.9992 14.0943 33.8947 16.7489L33.896 16.7477ZM25.5602 17.8143H14.2105C16.1086 21.6369 17.9742 25.3945 19.8848 29.2397C21.799 25.3857 23.6622 21.6357 25.5602 17.8143ZM19.8835 9.82545C18.2059 11.7569 16.5569 13.6569 14.8532 15.6197H24.9213C23.2026 13.6419 21.5574 11.7493 19.8848 9.82545H19.8835ZM30.2854 17.7679C29.6067 17.7679 29.0761 17.8005 28.5505 17.7579C28.0947 17.7215 27.8581 17.8794 27.6551 18.3018C26.797 20.0966 25.8953 21.8713 25.0122 23.6536C24.9512 23.7764 24.9064 23.9068 24.8541 24.0333C24.8777 24.0459 24.9026 24.0584 24.9263 24.0709C26.6811 22.0079 28.4347 19.9437 30.2854 17.7679ZM9.48656 17.7679C11.3535 19.9612 13.1071 22.023 14.8619 24.0847C13.9515 22.0242 12.9613 20.0201 11.955 18.0236C11.8952 17.9058 11.7134 17.7854 11.5839 17.7804C10.9462 17.7554 10.3073 17.7691 9.48656 17.7691V17.7679ZM13.9988 10.1388C13.9178 11.3132 13.8431 12.4023 13.7572 13.6707C14.9466 12.2983 16.0226 11.0562 17.2257 9.66879C16.0289 9.843 15.035 9.98839 13.9988 10.1388ZM25.894 13.5316C25.9339 13.5165 25.9725 13.5028 26.0123 13.4877C25.9314 12.3748 25.8492 11.263 25.7657 10.1263C24.7233 9.98212 23.7282 9.84425 22.7331 9.70639C22.7194 9.75276 22.7057 9.79913 22.6907 9.84676C23.7581 11.075 24.8254 12.3033 25.894 13.5328V13.5316ZM11.7408 12.3848C11.6997 12.371 11.6574 12.3572 11.6163 12.3434C10.8565 13.4125 10.0968 14.4816 9.28106 15.6297H11.5253C11.5988 14.5217 11.6698 13.4526 11.7408 12.3835V12.3848ZM30.5034 15.6435C29.6652 14.4653 28.9067 13.4012 28.1495 12.3372C28.1084 12.3522 28.0673 12.3672 28.0274 12.381C28.1034 13.4601 28.1794 14.5405 28.2566 15.6435H30.5034Z" fill="white"/>
</svg>
