<svg width="40" height="40" viewBox="0 0 40 40" fill="none" xmlns="http://www.w3.org/2000/svg">
<path d="M6.667 0C15.5562 0 24.4451 0 33.3343 0C33.6686 0.0492622 34.0065 0.079709 34.3365 0.150181C37.6623 0.861746 39.994 3.79421 39.9966 7.29286C40.0026 15.7642 39.999 24.236 39.998 32.7074C39.998 33.722 39.8305 34.709 39.4061 35.6268C38.0964 38.4604 35.8972 39.9694 32.8422 39.9814C24.2816 40.0149 15.7207 39.9927 7.15975 39.9937C6.0835 39.9937 5.04729 39.7905 4.08013 39.3044C1.93698 38.2271 0.61252 36.4862 0.131779 34.0829C0.0710604 33.7785 0.0430366 33.4672 0 33.1589C0 24.3735 0 15.5881 0 6.80263C0.0100085 6.765 0.0263557 6.72805 0.0290247 6.69008C0.130111 5.34084 0.562811 4.11339 1.3398 3.0221C2.44875 1.46487 3.93034 0.496727 5.78024 0.132734C6.07316 0.0752617 6.37108 0.0437886 6.667 0Z" fill="black"/>
<path fill-rule="evenodd" clip-rule="evenodd" d="M12.1325 22.8832C12.1347 22.853 12.1369 22.8223 12.1387 22.7908C12.1619 22.7889 12.1831 22.7865 12.2031 22.7842C12.242 22.7799 12.276 22.776 12.3097 22.7774C12.4177 22.7812 12.5257 22.7865 12.6337 22.7917C12.8018 22.7999 12.9698 22.8081 13.1378 22.8109C14.0731 22.8263 15.0068 22.8031 15.9333 22.6564C16.7161 22.5323 17.4809 22.3402 18.1932 21.9843C19.5765 21.2937 20.5808 20.2538 21.0937 18.7763C21.3867 17.9322 21.4671 17.0577 21.4372 16.1698C21.412 15.4261 21.258 14.7082 20.9747 14.0212C20.434 12.7084 19.4946 11.768 18.2323 11.1423C17.1286 10.5953 15.9457 10.3373 14.7251 10.3214C13.5864 10.3065 12.4474 10.3248 11.3084 10.3432C10.8674 10.3503 10.4264 10.3574 9.98545 10.3626C9.63967 10.3669 9.29418 10.376 8.94854 10.385C8.84013 10.3879 8.7317 10.3908 8.62325 10.3935C8.45278 10.3981 8.41364 10.4367 8.40591 10.602C8.40404 10.6403 8.40435 10.6787 8.40465 10.7171C8.40477 10.7315 8.40488 10.7458 8.40488 10.7601V28.1726C8.40488 28.1884 8.40474 28.2042 8.40459 28.22C8.40419 28.2635 8.40378 28.3069 8.40643 28.3503C8.41518 28.5074 8.46411 28.5568 8.62479 28.5692C8.66275 28.5722 8.70098 28.5717 8.73909 28.5711C8.75372 28.5709 8.76833 28.5707 8.7829 28.5707H11.7262C12.0939 28.5707 12.1227 28.5424 12.1227 28.1819C12.1227 27.7558 12.1227 27.3296 12.1227 26.9035C12.1226 25.6253 12.1225 24.3469 12.1233 23.0689C12.1236 23.0078 12.128 22.9467 12.1325 22.8832ZM12.1578 19.5247C12.1788 19.5287 12.1963 19.5327 12.2117 19.5363C12.2378 19.5423 12.2577 19.5469 12.2778 19.5473C12.4306 19.5496 12.5834 19.5525 12.7362 19.5555C13.1231 19.563 13.5099 19.5704 13.8964 19.5679C14.4181 19.5642 14.9311 19.4844 15.4363 19.3521C15.9446 19.2192 16.419 19.0219 16.8258 18.6774C17.2095 18.3524 17.4773 17.959 17.6014 17.4697C17.7075 17.05 17.7353 16.6215 17.69 16.1956C17.5829 15.1872 17.0844 14.4466 16.1352 14.0392C15.5275 13.7786 14.8868 13.673 14.2302 13.6689C13.7772 13.6663 13.324 13.675 12.8709 13.6836C12.7053 13.6868 12.5396 13.69 12.3741 13.6926C12.3275 13.6933 12.281 13.6991 12.2321 13.7051C12.208 13.7081 12.1833 13.7112 12.1578 13.7137V19.5247ZM23.3279 25.8889C23.328 26.0424 23.3281 26.196 23.3281 26.3494V27.6122C23.3281 28.0721 23.3399 28.0871 23.7659 28.2652C24.6867 28.651 25.659 28.8045 26.6442 28.891C27.3673 28.9548 28.0899 28.944 28.8124 28.8611C29.5494 28.7767 30.2637 28.6088 30.9358 28.2915C32.7281 27.4453 33.6278 25.7381 33.2714 23.7239C33.085 22.6681 32.4551 21.9018 31.5672 21.3384C30.7813 20.8398 29.9393 20.4567 29.0669 20.1307C28.6758 19.9847 28.2988 19.8007 27.9224 19.6168C27.8258 19.5697 27.7293 19.5225 27.6326 19.4761C27.424 19.3757 27.2478 19.2232 27.1021 19.0409C26.7622 18.616 26.9775 18.0876 27.3127 17.8935C27.3972 17.8445 27.4894 17.8018 27.5831 17.7765C27.8947 17.6926 28.2119 17.6411 28.5369 17.6406C29.0385 17.6396 29.536 17.6813 30.0299 17.7626C30.6407 17.8631 31.2428 17.9995 31.8139 18.2473C31.8844 18.2777 31.9537 18.3113 32.0231 18.3449C32.09 18.3773 32.1569 18.4098 32.2249 18.4394C32.4901 18.5547 32.6302 18.4651 32.6354 18.1803V18.1211C32.6354 17.8449 32.6355 17.5687 32.6356 17.2924C32.6358 16.7397 32.6361 16.1869 32.6354 15.6341C32.6348 15.2226 32.6091 15.1917 32.2264 15.0475C31.4977 14.7725 30.7334 14.6839 29.9661 14.6221C29.1781 14.5588 28.3891 14.5505 27.6011 14.6494C26.7941 14.7503 26.0345 14.9847 25.3361 15.4054C23.6036 16.4494 23.0577 18.3667 23.5017 19.9504C23.7602 20.8728 24.3432 21.5634 25.1152 22.1006C25.8094 22.5831 26.5654 22.9503 27.3544 23.2557C27.8088 23.4317 28.2539 23.6322 28.6983 23.8324C28.7571 23.8589 28.8159 23.8854 28.8748 23.9119C29.0926 24.0097 29.2806 24.1565 29.4351 24.3409C29.5479 24.4748 29.6308 24.6226 29.6318 24.8033C29.6339 25.1448 29.4825 25.3977 29.1807 25.5542C28.8892 25.7056 28.5709 25.7618 28.2485 25.786C27.6691 25.8292 27.0918 25.8066 26.517 25.7165C25.5086 25.5584 24.543 25.2756 23.65 24.7688C23.377 24.6143 23.3291 24.6447 23.3281 24.9676C23.3274 25.2746 23.3276 25.5818 23.3279 25.8889Z" fill="white"/>
</svg>
