<svg width="40" height="40" viewBox="0 0 40 40" fill="none" xmlns="http://www.w3.org/2000/svg">
<path d="M6.667 0C15.5562 0 24.4451 0 33.3343 0C33.6686 0.0492622 34.0065 0.079709 34.3365 0.150181C37.6623 0.861746 39.994 3.79421 39.9966 7.29286C40.0026 15.7642 39.999 24.236 39.998 32.7074C39.998 33.722 39.8305 34.709 39.4061 35.6268C38.0964 38.4604 35.8972 39.9694 32.8422 39.9814C24.2816 40.0149 15.7207 39.9927 7.15975 39.9937C6.0835 39.9937 5.04729 39.7905 4.08013 39.3044C1.93698 38.2271 0.61252 36.4862 0.131779 34.0829C0.0710604 33.7785 0.0430366 33.4672 0 33.1589C0 24.3735 0 15.5881 0 6.80263C0.0100085 6.765 0.0263557 6.72805 0.0290247 6.69008C0.130111 5.34084 0.562811 4.11339 1.3398 3.0221C2.44875 1.46487 3.93034 0.496727 5.78024 0.132734C6.07316 0.0752617 6.37108 0.0437886 6.667 0Z" fill="black"/>
<path fill-rule="evenodd" clip-rule="evenodd" d="M16.0646 23.9317H9.70618L8.40692 27.9656C8.37278 28.1194 8.23622 28.2219 8.0824 28.205H4.86859C4.68023 28.205 4.62922 28.1026 4.68023 27.8973L10.1845 12.1194C10.2359 11.9484 10.2869 11.7945 10.3556 11.5893C10.4239 11.2302 10.458 10.8543 10.458 10.478C10.4412 10.3925 10.5094 10.3073 10.595 10.29H15.0221C15.1418 10.29 15.2273 10.3414 15.2442 10.4266L21.4835 27.9484C21.5349 28.1363 21.4835 28.2215 21.3124 28.2215H17.7395C17.6202 28.2387 17.5002 28.1532 17.4664 28.0335L16.0646 23.9317ZM15.0394 20.5295H10.6978H10.6974C10.9536 19.8114 11.2271 19.0085 11.4493 18.1366C11.6203 17.6022 11.7847 17.0678 11.9466 16.5417C12.0435 16.2265 12.1396 15.9142 12.2356 15.6068C12.4746 14.8714 12.663 14.1364 12.8168 13.4014H12.8509C12.9183 13.6314 12.9854 13.8723 13.0555 14.1239C13.1104 14.321 13.1671 14.5246 13.2272 14.7348C13.3642 15.2304 13.518 15.7264 13.6887 16.2562C13.7747 16.5224 13.8563 16.7844 13.938 17.0464C14.0188 17.3058 14.0996 17.5652 14.1847 17.829C14.3385 18.3418 14.4924 18.8374 14.6462 19.2989C14.8 19.7435 14.937 20.1705 15.0394 20.5295ZM26.2026 22.3582H31.6217L31.6221 22.3574C31.851 22.3574 32.0709 22.3755 32.2841 22.3931C32.4847 22.4096 32.6794 22.4257 32.87 22.4257C33.2632 22.4257 33.5881 22.4088 33.8612 22.3743C33.9606 22.3682 34.0487 22.362 34.1254 22.3566C34.2603 22.3472 34.3602 22.3401 34.4255 22.3401C34.5456 22.3401 34.648 22.2377 34.6649 22.118C34.6723 22.0505 34.6797 21.9667 34.6887 21.8663C34.7001 21.738 34.714 21.5827 34.7331 21.4003C34.7504 21.0754 34.7673 20.7164 34.7673 20.3063C34.7673 19.6051 34.6649 18.9046 34.4428 18.2207C34.2207 17.5025 33.8612 16.8531 33.417 16.272C32.9383 15.6739 32.323 15.2125 31.6221 14.9048C30.784 14.5285 29.8783 14.3578 28.9722 14.3747C27.8782 14.3747 26.9211 14.5116 26.1175 14.9048C25.3142 15.298 24.613 15.8446 24.0491 16.5286C23.4675 17.2294 23.0402 18.0158 22.7667 18.8705C22.4759 19.7593 22.3394 20.6653 22.3394 21.5883C22.3394 22.4433 22.459 23.2807 22.6984 24.0844C22.9378 24.9049 23.331 25.6568 23.878 26.3235C24.4591 27.0243 25.1941 27.5886 26.0319 27.9476C26.9207 28.3404 28.0147 28.5457 29.314 28.5457C30.1341 28.5625 30.9374 28.4943 31.741 28.3404C32.3395 28.2376 32.9033 28.0669 33.4504 27.8276C33.5018 27.7934 33.5359 27.7593 33.57 27.7079C33.5873 27.6392 33.6042 27.5709 33.6042 27.5026V24.8873C33.6042 24.7166 33.5532 24.6824 33.4676 24.7507C32.9889 24.9387 32.4764 25.0756 31.9463 25.1439C31.3655 25.264 30.7671 25.315 30.1687 25.3322C29.4168 25.3491 28.6646 25.1953 27.981 24.9049C27.4677 24.7001 27.0404 24.341 26.7327 23.8796C26.442 23.4181 26.2709 22.8879 26.2026 22.3582ZM29.8096 19.8621H26.2026C26.254 19.4352 26.3737 19.0247 26.5789 18.6315C27.0235 17.7768 27.9123 17.2808 28.8525 17.3322C29.861 17.2981 30.7671 17.9475 31.0747 18.905C31.1426 19.1102 31.1771 19.3155 31.1771 19.5376V19.7083C31.0579 19.7938 30.9209 19.828 30.784 19.8452C30.5787 19.8621 30.2542 19.8621 29.8096 19.8621Z" fill="white"/>
</svg>
