<svg width="40" height="40" viewBox="0 0 40 40" fill="none" xmlns="http://www.w3.org/2000/svg">
<path d="M6.667 0C15.5562 0 24.4451 0 33.3343 0C33.6686 0.0492622 34.0065 0.079709 34.3365 0.150181C37.6623 0.861746 39.994 3.79421 39.9966 7.29286C40.0026 15.7642 39.999 24.236 39.998 32.7074C39.998 33.722 39.8305 34.709 39.4061 35.6268C38.0964 38.4604 35.8972 39.9694 32.8422 39.9814C24.2816 40.0149 15.7207 39.9927 7.15975 39.9937C6.0835 39.9937 5.04729 39.7905 4.08013 39.3044C1.93698 38.2271 0.61252 36.4862 0.131779 34.0829C0.0710604 33.7785 0.0430366 33.4672 0 33.1589C0 24.3735 0 15.5881 0 6.80263C0.0100085 6.765 0.0263557 6.72805 0.0290247 6.69008C0.130111 5.34084 0.562811 4.11339 1.3398 3.0221C2.44875 1.46487 3.93034 0.496727 5.78024 0.132734C6.07316 0.0752617 6.37108 0.0437886 6.667 0Z" fill="black"/>
<path fill-rule="evenodd" clip-rule="evenodd" d="M26.249 6.55273C26.4758 6.55273 26.6445 6.57383 26.6445 6.60547C26.6445 6.63711 26.6814 6.6582 26.7236 6.6582C26.7658 6.6582 27.6992 7.09063 28.7961 7.6127C29.8877 8.14004 31.2324 8.78867 31.7861 9.05234C32.5033 9.40039 32.8461 9.59551 32.9937 9.74316C33.1098 9.85918 33.2627 10.0859 33.4736 10.5342L33.5 29.334L33.384 29.6346C33.3154 29.8139 33.173 30.0459 33.0307 30.1988C32.825 30.415 32.6299 30.5363 31.8125 30.9318C31.2746 31.1902 29.9299 31.8389 28.8172 32.3715C27.7098 32.9041 26.7658 33.3418 26.7236 33.3418C26.6814 33.3418 26.6445 33.3682 26.6445 33.3945C26.6445 33.4262 26.4758 33.4473 26.249 33.4473C26.0223 33.4473 25.8535 33.4262 25.8535 33.3945C25.8535 33.3682 25.7902 33.3312 25.7111 33.3154C25.6268 33.2996 25.4686 33.2258 25.3525 33.1414C25.2365 33.057 24.1555 32.092 22.9531 30.9951C21.7508 29.8982 20.5379 28.7961 20.2637 28.543C19.9895 28.2898 18.7871 27.1982 17.6006 26.1172C16.4141 25.0309 15.2117 23.9393 14.4365 23.2273L12.0635 25.0203C10.7609 26.0117 9.61133 26.8502 9.51641 26.8871C9.42676 26.9293 9.23691 26.9609 9.0998 26.9609C8.93633 26.9609 8.76758 26.9187 8.6252 26.8449C8.50391 26.7764 8.03984 26.3914 7.59687 25.9906C7.15391 25.5846 6.74258 25.1838 6.68457 25.0941C6.62656 25.0045 6.56328 24.9254 6.54219 24.9148C6.51582 24.9096 6.5 24.725 6.5 24.5088C6.5 24.2926 6.51582 24.1133 6.54219 24.1133C6.56328 24.1133 6.60547 24.05 6.64238 23.9709C6.6793 23.8865 7.06953 23.491 7.5125 23.0797C7.95547 22.6736 8.88887 21.8193 9.58496 21.1865C10.2811 20.5537 10.8506 20.0158 10.8506 20C10.8506 19.9789 10.2811 19.4463 9.58496 18.8082C8.88359 18.1754 7.9502 17.3211 7.5125 16.915C7.06953 16.509 6.67402 16.1135 6.64238 16.0291C6.60547 15.95 6.56328 15.8867 6.54219 15.8867C6.51582 15.8867 6.5 15.7074 6.5 15.4912C6.5 15.275 6.51582 15.0904 6.54219 15.0799C6.56328 15.0746 6.62656 14.9955 6.68457 14.9059C6.74258 14.8162 7.16445 14.3996 7.62324 13.983C8.08203 13.5664 8.54609 13.1814 8.65156 13.134C8.75703 13.0813 8.96797 13.0391 9.11035 13.0391C9.25801 13.0391 9.45312 13.076 9.55859 13.1287C9.66406 13.1814 10.1703 13.5453 10.6871 13.9355C11.2039 14.3258 12.2428 15.1168 13.0021 15.6916C13.7615 16.2664 14.4102 16.7252 14.4471 16.7199C14.4787 16.7094 15.0008 16.2506 15.6072 15.6969C16.2084 15.1484 17.2736 14.1781 17.9697 13.54C18.6658 12.9072 19.4621 12.1848 19.7363 11.9316C20.0105 11.6785 21.2129 10.5869 22.3994 9.50059C23.5912 8.41426 24.7355 7.37539 24.9465 7.18555C25.1574 6.9957 25.4053 6.80059 25.5002 6.75312C25.5951 6.70566 25.7111 6.66348 25.7639 6.6582C25.8113 6.6582 25.8535 6.63711 25.8535 6.60547C25.8535 6.57383 26.0223 6.55273 26.249 6.55273ZM21.7719 17.6428C20.0896 18.9189 18.7186 19.9789 18.7238 20.0053C18.7291 20.0316 20.1055 21.0916 21.7824 22.3572C23.4541 23.6281 25.2418 24.9781 25.748 25.3631C26.2543 25.748 26.6867 26.0645 26.7131 26.0645C26.7342 26.0645 26.75 23.3328 26.75 20C26.75 16.6619 26.7342 13.9355 26.7131 13.9355C26.6867 13.9355 26.2543 14.252 25.748 14.6369C25.2418 15.0219 23.4488 16.3719 21.7719 17.6428Z" fill="white"/>
</svg>
